# xmcd
#
# Track frame offsets:
#  150
#  17003
#  32484
#  47572
#  64978
#  85329
#  106011
#  125950
#  148638
#  160805
#  180366
#  197032
#
# Disc length: 2921 seconds
#
# Revision: 0
# Processed by: cddbd v1.5.1PL2 Copyright (c) Steve Scherf et al.
# Submitted via: Collectorz.com_Music_Collector 6.9
#
DISCID=9c0b670c
DTITLE=Jackie Morris - Where The Legends Grow Like Weeds
DYEAR=2006
DGENRE=Folk
TTITLE0=Where The Legends Grow Like Weeds
TTITLE1=Moth To A Flame
TTITLE2=Trouble With A Wanted Man
TTITLE3=Far Too Much
TTITLE4=Down To The Sea
TTITLE5=The Gold Country's Turning To Wine
TTITLE6=One-Eyed Jack
TTITLE7=Online Dating
TTITLE8=Gone, Gone, Gone
TTITLE9=Right As Rain
TTITLE10=Blue Bottle Fly
TTITLE11=Louise
EXTD=
EXTT0=
EXTT1=
EXTT2=
EXTT3=
EXTT4=
EXTT5=
EXTT6=
EXTT7=
EXTT8=
EXTT9=
EXTT10=
EXTT11=
PLAYORDER=
